<?xml version="1.0" encoding="UTF-8" standalone="no"?>
<!-- Created with Inkscape (http://www.inkscape.org/) -->

<svg
   width="512"
   height="512"
   viewBox="0 0 512 512"
   version="1.1"
   id="svg1"
   xmlns="http://www.w3.org/2000/svg"
   xmlns:svg="http://www.w3.org/2000/svg">
  <defs
     id="defs1" />
  <g
     id="layer3"
     style="display:none"
     transform="translate(-512,-2394.479)">
    <rect
       style="fill:#999999"
       id="rect157"
       width="512"
       height="512"
       x="0"
       y="2394.479" />
    <rect
       style="fill:#999999"
       id="rect10"
       width="512"
       height="512"
       x="512"
       y="2394.479" />
    <rect
       style="fill:#999999"
       id="rect97"
       width="512"
       height="512"
       x="1024"
       y="2394.479" />
  </g>
  <g
     id="layer1"
     transform="translate(-512,-2394.479)">
    <path
       style="font-variation-settings:normal;opacity:1;vector-effect:none;fill:#5fd35f;fill-opacity:1;stroke:#5599ff;stroke-width:0.3;stroke-linecap:butt;stroke-linejoin:miter;stroke-miterlimit:4;stroke-dasharray:none;stroke-dashoffset:0;stroke-opacity:1;-inkscape-stroke:none;stop-color:#000000;stop-opacity:1"
       d="m 768.00003,2408.0649 -1e-5,205.8908 21.37932,6.9164 121.10815,-166.5102 z"
       id="path91" />
  </g>
  <g
     id="layer2"
     transform="translate(-512,-2394.479)">
    <path
       style="fill:none;stroke:#ffffff;stroke-width:12;stroke-dasharray:none"
       d="M 256,209.25963 V 33.447236 M 228.5267,218.18625 125.18677,75.951032 M 211.54727,241.55643 44.339744,187.22741 M 211.54727,270.44357 44.339744,324.77259 M 228.5267,293.81375 125.18677,436.04897 M 256,302.74037 v 175.81239 m 27.4733,-184.73901 103.33993,142.23522 m -86.3605,-165.6054 167.20753,54.32902 M 300.45273,241.55643 467.66026,187.22741 M 283.4733,218.18625 386.81323,75.951032"
       id="path17"
       transform="translate(512.00002,2394.479)" />
    <path
       style="font-variation-settings:normal;fill:none;fill-opacity:1;stroke:#ffffff;stroke-width:12;stroke-linecap:butt;stroke-linejoin:miter;stroke-miterlimit:4;stroke-dasharray:none;stroke-dashoffset:0;stroke-opacity:1;stop-color:#000000"
       id="path18"
       d="m 256.00001,598.1843 142.48746,46.29698 88.06209,121.20708 0,149.82019 -88.0621,121.20705 -142.48747,46.297 -142.48746,-46.297 -88.062093,-121.20706 4e-6,-149.82019 88.062099,-121.20707 z"
       transform="translate(512.00002,1809.8806)" />
    <path
       style="font-variation-settings:normal;fill:none;fill-opacity:1;stroke:#ffffff;stroke-width:80.1513;stroke-linecap:butt;stroke-linejoin:miter;stroke-miterlimit:4;stroke-dasharray:none;stroke-dashoffset:0;stroke-opacity:1;stop-color:#000000"
       id="path65"
       d="m 256.00001,598.1843 142.48746,46.29698 88.06209,121.20708 0,149.82019 -88.0621,121.20705 -142.48747,46.297 -142.48746,-46.297 -88.062093,-121.20706 4e-6,-149.82019 88.062099,-121.20707 z"
       transform="matrix(0.15004355,0,0,0.14939077,729.58887,2524.5925)" />
  </g>
</svg>
